HIERARCHY
ROOT Hips
{
	OFFSET 0.000000 100.481300 0.000000
	CHANNELS 6 Xposition Yposition Zposition Xrotation Yrotation Zrotation 
	JOINT Spine
	{
		OFFSET -0.279200 12.230698 -2.892100
		CHANNELS 3 Xrotation Yrotation Zrotation
		JOINT Spine1
		{
			OFFSET -0.232667 10.192268 -1.242267
			CHANNELS 3 Xrotation Yrotation Zrotation
			JOINT Spine1_split
			{
				OFFSET -0.232667 10.192268 -1.242267
				CHANNELS 3 Xrotation Yrotation Zrotation
				JOINT Spine2
				{
					OFFSET -0.232667 10.192268 -1.242267
					CHANNELS 3 Xrotation Yrotation Zrotation
					JOINT Neck
					{
						OFFSET -0.418800 17.814194 8.416900
						CHANNELS 3 Xrotation Yrotation Zrotation
						JOINT Head
						{
							OFFSET 0.000000 7.031097 3.806800
							CHANNELS 3 Xrotation Yrotation Zrotation
							JOINT HeadTop_End
							{
								OFFSET 0.000000 24.646606 12.978600
								CHANNELS 3 Xrotation Yrotation Zrotation
								End Site
								{
									OFFSET 0.000000 0.000000 0.000000
								}
							}
						}
					}
					JOINT LeftShoulder
					{
						OFFSET 8.476499 7.247704 -3.868750
						CHANNELS 3 Xrotation Yrotation Zrotation
						JOINT LeftShoulder_split
						{
							OFFSET 8.476499 7.247704 -3.868750
							CHANNELS 3 Xrotation Yrotation Zrotation
							JOINT LeftArm
							{
								OFFSET 9.308998 -2.777710 0.208600
								CHANNELS 3 Xrotation Yrotation Zrotation
								JOINT LeftForeArm
								{
									OFFSET 29.972298 0.000000 0.000000
									CHANNELS 3 Xrotation Yrotation Zrotation
									JOINT LeftHand
									{
										OFFSET 26.026505 0.000000 0.000000
										CHANNELS 3 Xrotation Yrotation Zrotation
										JOINT LeftHandThumb1
										{
											OFFSET 12.240501 -7.147949 9.207150
											CHANNELS 3 Xrotation Yrotation Zrotation
											JOINT LeftHandThumb2
											{
												OFFSET 4.138618 -2.389435 2.389433
												CHANNELS 3 Xrotation Yrotation Zrotation
												JOINT LeftHandThumb3
												{
													OFFSET 2.726913 -1.574387 1.574386
													CHANNELS 3 Xrotation Yrotation Zrotation
													JOINT LeftHandThumb4
													{
														OFFSET 3.941010 -2.275345 2.275342
														CHANNELS 3 Xrotation Yrotation Zrotation
														End Site
														{
															OFFSET 0.000000 0.000000 0.000000
														}
													}
												}
											}
										}
										JOINT LeftHandIndex1
										{
											OFFSET 24.424698 -1.985611 5.953459
											CHANNELS 3 Xrotation Yrotation Zrotation
											JOINT LeftHandIndex2
											{
												OFFSET 6.426697 0.000000 0.000000
												CHANNELS 3 Xrotation Yrotation Zrotation
												JOINT LeftHandIndex3
												{
													OFFSET 5.337898 0.000000 0.000000
													CHANNELS 3 Xrotation Yrotation Zrotation
													JOINT LeftHandIndex4
													{
														OFFSET 4.409401 0.000000 0.000000
														CHANNELS 3 Xrotation Yrotation Zrotation
														End Site
														{
															OFFSET 0.000000 0.000000 0.000000
														}
													}
												}
											}
										}
										JOINT LeftHandMiddle1
										{
											OFFSET 23.810104 0.000000 0.000000
											CHANNELS 3 Xrotation Yrotation Zrotation
											JOINT LeftHandMiddle2
											{
												OFFSET 7.176498 0.000000 0.000000
												CHANNELS 3 Xrotation Yrotation Zrotation
												JOINT LeftHandMiddle3
												{
													OFFSET 6.774902 0.000000 0.000000
													CHANNELS 3 Xrotation Yrotation Zrotation
													JOINT LeftHandMiddle4
													{
														OFFSET 5.403328 0.000000 0.000000
														CHANNELS 3 Xrotation Yrotation Zrotation
														End Site
														{
															OFFSET 0.000000 0.000000 0.000000
														}
													}
												}
											}
										}
										JOINT LeftHandRing1
										{
											OFFSET 22.908401 -0.839279 -6.020567
											CHANNELS 3 Xrotation Yrotation Zrotation
											JOINT LeftHandRing2
											{
												OFFSET 6.337502 0.000000 0.000000
												CHANNELS 3 Xrotation Yrotation Zrotation
												JOINT LeftHandRing3
												{
													OFFSET 5.779297 0.000000 0.000000
													CHANNELS 3 Xrotation Yrotation Zrotation
													JOINT LeftHandRing4
													{
														OFFSET 4.965698 0.000000 0.000000
														CHANNELS 3 Xrotation Yrotation Zrotation
														End Site
														{
															OFFSET 0.000000 0.000000 0.000000
														}
													}
												}
											}
										}
										JOINT LeftHandPinky1
										{
											OFFSET 20.037003 -1.530319 -10.950146
											CHANNELS 3 Xrotation Yrotation Zrotation
											JOINT LeftHandPinky2
											{
												OFFSET 5.254700 0.000000 0.000000
												CHANNELS 3 Xrotation Yrotation Zrotation
												JOINT LeftHandPinky3
												{
													OFFSET 4.810204 0.000000 0.000000
													CHANNELS 3 Xrotation Yrotation Zrotation
													JOINT LeftHandPinky4
													{
														OFFSET 3.647202 0.000000 0.000000
														CHANNELS 3 Xrotation Yrotation Zrotation
														End Site
														{
															OFFSET 0.000000 0.000000 0.000000
														}
													}
												}
											}
										}
									}
								}
							}
						}
					}
					JOINT RightShoulder
					{
						OFFSET -7.570500 7.247704 -3.868750
						CHANNELS 3 Xrotation Yrotation Zrotation
						JOINT RightShoulder_split
						{
							OFFSET -7.570500 7.247704 -3.868750
							CHANNELS 3 Xrotation Yrotation Zrotation
							JOINT RightArm
							{
								OFFSET -9.308998 -2.777710 0.208500
								CHANNELS 3 Xrotation Yrotation Zrotation
								JOINT RightForeArm
								{
									OFFSET -29.972300 0.000000 0.000000
									CHANNELS 3 Xrotation Yrotation Zrotation
									JOINT RightHand
									{
										OFFSET -26.026505 0.000000 0.000000
										CHANNELS 3 Xrotation Yrotation Zrotation
										JOINT RightHandThumb1
										{
											OFFSET -12.240601 -7.148026 9.207092
											CHANNELS 3 Xrotation Yrotation Zrotation
											JOINT RightHandThumb2
											{
												OFFSET -4.138618 -2.389435 2.389433
												CHANNELS 3 Xrotation Yrotation Zrotation
												JOINT RightHandThumb3
												{
													OFFSET -2.726974 -1.574417 1.574421
													CHANNELS 3 Xrotation Yrotation Zrotation
													JOINT RightHandThumb4
													{
														OFFSET -3.941010 -2.275345 2.275343
														CHANNELS 3 Xrotation Yrotation Zrotation
														End Site
														{
															OFFSET 0.000000 0.000000 0.000000
														}
													}
												}
											}
										}
										JOINT RightHandIndex1
										{
											OFFSET -24.424698 -1.985657 5.953444
											CHANNELS 3 Xrotation Yrotation Zrotation
											JOINT RightHandIndex2
											{
												OFFSET -6.426697 0.000000 0.000000
												CHANNELS 3 Xrotation Yrotation Zrotation
												JOINT RightHandIndex3
												{
													OFFSET -5.337898 0.000000 0.000000
													CHANNELS 3 Xrotation Yrotation Zrotation
													JOINT RightHandIndex4
													{
														OFFSET -4.409401 0.000000 0.000000
														CHANNELS 3 Xrotation Yrotation Zrotation
														End Site
														{
															OFFSET 0.000000 0.000000 0.000000
														}
													}
												}
											}
										}
										JOINT RightHandMiddle1
										{
											OFFSET -23.810097 0.000000 0.000000
											CHANNELS 3 Xrotation Yrotation Zrotation
											JOINT RightHandMiddle2
											{
												OFFSET -7.176498 0.000000 0.000000
												CHANNELS 3 Xrotation Yrotation Zrotation
												JOINT RightHandMiddle3
												{
													OFFSET -6.774902 0.000000 0.000000
													CHANNELS 3 Xrotation Yrotation Zrotation
													JOINT RightHandMiddle4
													{
														OFFSET -5.403328 0.000000 0.000000
														CHANNELS 3 Xrotation Yrotation Zrotation
														End Site
														{
															OFFSET 0.000000 0.000000 0.000000
														}
													}
												}
											}
										}
										JOINT RightHandRing1
										{
											OFFSET -22.908302 -0.839325 -6.020576
											CHANNELS 3 Xrotation Yrotation Zrotation
											JOINT RightHandRing2
											{
												OFFSET -6.337502 0.000000 0.000000
												CHANNELS 3 Xrotation Yrotation Zrotation
												JOINT RightHandRing3
												{
													OFFSET -5.779297 0.000000 0.000000
													CHANNELS 3 Xrotation Yrotation Zrotation
													JOINT RightHandRing4
													{
														OFFSET -4.965698 0.000000 0.000000
														CHANNELS 3 Xrotation Yrotation Zrotation
														End Site
														{
															OFFSET 0.000000 0.000000 0.000000
														}
													}
												}
											}
										}
										JOINT RightHandPinky1
										{
											OFFSET -20.037003 -1.530334 -10.950259
											CHANNELS 3 Xrotation Yrotation Zrotation
											JOINT RightHandPinky2
											{
												OFFSET -5.254700 0.000000 0.000000
												CHANNELS 3 Xrotation Yrotation Zrotation
												JOINT RightHandPinky3
												{
													OFFSET -4.810204 0.000000 0.000000
													CHANNELS 3 Xrotation Yrotation Zrotation
													JOINT RightHandPinky4
													{
														OFFSET -3.647202 0.000000 0.000000
														CHANNELS 3 Xrotation Yrotation Zrotation
														End Site
														{
															OFFSET 0.000000 0.000000 0.000000
														}
													}
												}
											}
										}
									}
								}
							}
						}
					}
				}
			}
		}
	}
	JOINT LeftUpLeg
	{
		OFFSET 15.427100 -6.655098 0.678600
		CHANNELS 3 Xrotation Yrotation Zrotation
		JOINT LeftLeg
		{
			OFFSET 4.081073 -39.591068 13.024000
			CHANNELS 3 Xrotation Yrotation Zrotation
			JOINT LeftFoot
			{
				OFFSET -4.081074 -37.707932 -15.979700
				CHANNELS 3 Xrotation Yrotation Zrotation
				JOINT LeftToeBase
				{
					OFFSET 5.346399 -15.068900 20.645000
					CHANNELS 3 Xrotation Yrotation Zrotation
					JOINT LeftToe_End
					{
						OFFSET 2.754700 0.931300 11.300900
						CHANNELS 3 Xrotation Yrotation Zrotation
						End Site
						{
							OFFSET 0.000000 0.000000 0.000000
						}
					}
				}
			}
		}
	}
	JOINT RightUpLeg
	{
		OFFSET -15.569500 -6.655098 0.678600
		CHANNELS 3 Xrotation Yrotation Zrotation
		JOINT RightLeg
		{
			OFFSET -4.081825 -39.591045 13.023800
			CHANNELS 3 Xrotation Yrotation Zrotation
			JOINT RightFoot
			{
				OFFSET 4.081824 -37.707954 -15.979600
				CHANNELS 3 Xrotation Yrotation Zrotation
				JOINT RightToeBase
				{
					OFFSET -5.346400 -15.068900 20.645000
					CHANNELS 3 Xrotation Yrotation Zrotation
					JOINT RightToe_End
					{
						OFFSET -2.754700 0.931300 11.300900
						CHANNELS 3 Xrotation Yrotation Zrotation
						End Site
						{
							OFFSET 0.000000 0.000000 0.000000
						}
					}
				}
			}
		}
	}
}
MOTION
Frames: 4
Frame Time: 0.016667
0.288769 78.878181 -0.156937 3.037454 -58.355039 6.232857 11.190417 0.276957 -2.458403 8.434577 0.027699 -5.592317 0.000000 0.000000 0.000000 8.457047 0.027885 -5.591872 -21.555734 25.063376 12.062602 -0.294015 25.465834 -3.208973 -0.000000 0.000000 -0.000000 -6.221668 -11.503793 -4.023834 0.000000 0.000000 0.000000 -23.061666 9.569076 -36.639734 0.046289 -43.170829 -0.011028 22.743587 -5.684965 15.978966 -1.064231 -7.954912 8.490094 2.373403 19.986098 -2.038323 0.808191 1.237775 2.631740 0.000001 0.000001 -0.000002 13.340886 -1.006666 10.682294 -0.167597 0.303419 -31.105672 -0.143373 0.303602 -32.256248 0.000002 0.000000 -0.000002 8.495434 -0.329521 -0.915311 0.231527 0.661205 -29.901803 0.444093 0.213425 -44.357055 -0.000000 0.000000 -0.000001 6.111750 3.150901 -16.210952 0.047080 0.322408 -30.125444 0.408800 0.818956 -42.140638 0.000001 -0.000000 -0.000003 -5.636023 7.709896 -13.878617 0.224375 0.276571 -46.588389 0.261250 0.249350 -46.286833 -0.000001 0.000000 -0.000002 -5.488244 10.658251 2.466553 0.000000 0.000000 0.000000 -41.473168 -26.756173 30.079480 24.953654 111.863930 -23.306648 -8.702481 12.422796 -9.802165 0.264986 10.061087 -10.888489 1.383812 -17.412854 3.016275 3.342368 -13.253742 -8.262768 0.000000 -0.000001 -0.000001 19.443602 11.174423 -13.340188 -0.118675 -0.322690 18.035601 -0.089877 -0.286622 23.256577 -0.000001 -0.000002 -0.000000 4.320458 2.436971 -4.811716 0.349127 -0.461258 26.890313 0.467518 0.154048 39.044845 0.000001 -0.000000 -0.000001 -7.005617 -10.695139 5.719854 0.111864 -0.089188 26.155907 0.451277 -0.473523 33.265046 0.000001 -0.000000 0.000001 -19.433517 -20.238197 5.987877 0.223788 -0.085780 36.844615 0.260765 -0.047508 36.471667 -0.000002 -0.000000 0.000001 -34.680357 8.733502 27.677052 40.314003 -8.737502 -10.519077 -7.470705 -1.705497 -10.812207 -0.367831 1.237928 0.746178 -0.000000 0.000002 0.000000 -31.022736 -7.193262 -29.202324 46.886161 5.280981 -6.185088 -19.296283 0.939355 23.039621 -0.364949 -0.996771 -0.741409 0.000000 0.000002 -0.000000 
0.299334 78.881104 -0.121224 3.061206 -58.325642 6.247616 11.190425 0.277600 -2.457250 8.434583 0.027698 -5.592320 0.000000 0.000000 0.000000 8.457057 0.027854 -5.591855 -21.547780 25.033963 12.079120 -0.272046 25.428501 -3.263954 0.000000 0.000000 0.000000 -6.224969 -11.506050 -4.040200 0.000000 0.000000 0.000000 -23.270321 9.617856 -36.667867 0.069784 -43.129520 0.031132 23.501487 -5.369470 16.129536 -1.038533 -7.796624 8.549072 2.420526 20.133376 -1.982848 0.844459 1.387017 2.703130 -0.000001 0.000000 -0.000002 13.341403 -1.007231 10.512662 -0.167393 0.303529 -31.275364 -0.142758 0.303436 -32.425961 -0.000000 0.000000 -0.000002 8.492730 -0.327824 -1.084963 0.232457 0.661755 -30.071503 0.445123 0.213766 -44.526755 -0.000001 0.000001 0.000001 6.109965 3.152862 -16.380443 0.047145 0.323611 -30.295185 0.410508 0.818858 -42.310351 0.000002 -0.000000 -0.000001 -5.636748 7.710935 -14.047783 0.225061 0.277123 -46.757989 0.262049 0.249779 -46.456498 0.000001 0.000001 -0.000000 -5.494070 10.657948 2.495524 0.000000 0.000000 0.000000 -41.054443 -26.626326 30.531584 28.810097 112.648254 -27.515644 -7.502687 11.836817 -10.784953 0.243505 10.220480 -10.828468 1.330416 -17.266312 3.075579 3.320073 -13.102361 -8.195406 -0.000003 -0.000002 0.000001 19.443332 11.174227 -13.513172 -0.118818 -0.322576 17.863204 -0.090570 -0.286630 23.084165 -0.000001 -0.000001 -0.000000 4.323255 2.438517 -4.984185 0.348155 -0.460545 26.717922 0.466444 0.154470 38.872427 0.000001 -0.000002 -0.000000 -7.004239 -10.693720 5.546723 0.111876 -0.088046 25.983457 0.449544 -0.473395 33.092656 0.000002 -0.000001 -0.000000 -19.432986 -20.237531 5.812524 0.223197 -0.085073 36.672208 0.260034 -0.046969 36.299273 0.000003 -0.000001 0.000000 -34.708737 8.736243 27.648059 40.333930 -8.752205 -10.523562 -7.485525 -1.710949 -10.770207 -0.367330 1.237987 0.747301 0.000000 0.000002 -0.000000 -30.995819 -7.194009 -29.231205 46.845955 5.265243 -6.180280 -19.286574 0.928999 23.082242 -0.365745 -0.996870 -0.739577 -0.000000 0.000001 -0.000000 
0.333350 78.888489 -0.019255 3.082689 -58.296074 6.253423 11.190425 0.278666 -2.454269 8.427926 0.021787 -5.590522 0.000000 0.000000 0.000000 8.450534 0.024361 -5.590740 -21.522821 24.948441 12.125785 -0.210774 25.320597 -3.422931 -0.000000 -0.000000 -0.000000 -6.234563 -11.512565 -4.088062 0.000000 0.000000 0.000000 -23.549881 9.594467 -36.642565 0.138466 -42.979290 0.153732 24.249788 -5.074758 16.216157 -1.011785 -7.630810 8.610735 2.469891 20.287590 -1.924796 0.882266 1.543345 2.777789 -0.000000 0.000000 -0.000001 13.341953 -1.007899 10.334934 -0.167209 0.303605 -31.453052 -0.142106 0.303248 -32.603659 -0.000002 0.000000 -0.000002 8.489885 -0.326103 -1.262661 0.233448 0.662290 -30.249292 0.446227 0.214095 -44.704438 -0.000001 -0.000000 -0.000001 6.109448 3.154884 -16.558100 0.047225 0.324750 -30.472851 0.412289 0.818739 -42.488090 0.000000 0.000000 0.000002 -5.635095 7.712074 -14.225266 0.225754 0.277692 -46.935769 0.262895 0.250184 -46.634257 0.000000 0.000000 -0.000002 -5.511181 10.663440 2.580818 0.000000 0.000000 0.000000 -40.669426 -26.535558 30.926598 30.091901 112.878466 -29.366354 -7.446033 11.442789 -11.863741 0.220536 10.390418 -10.764401 1.272181 -17.106767 3.140222 3.296329 -12.942765 -8.124426 -0.000001 0.000001 0.000000 19.443040 11.174043 -13.701398 -0.118990 -0.322433 17.675437 -0.091326 -0.286682 22.896474 -0.000000 0.000001 0.000003 4.326288 2.440263 -5.171979 0.347177 -0.459885 26.530150 0.465311 0.155059 38.684743 0.000001 0.000001 0.000000 -7.002689 -10.692157 5.358384 0.111891 -0.086794 25.795758 0.448876 -0.472382 32.904897 -0.000001 0.000000 -0.000000 -19.432445 -20.236747 5.622109 0.222558 -0.084413 36.484466 0.259293 -0.046381 36.111494 -0.000001 -0.000001 -0.000000 -34.733008 8.749248 27.582076 40.400890 -8.762230 -10.537206 -7.551309 -1.719123 -10.675157 -0.365072 1.237978 0.752467 -0.000000 0.000001 -0.000000 -30.937560 -7.198152 -29.308687 46.738138 5.274313 -6.167443 -19.239859 0.914619 23.171000 -0.367434 -0.996829 -0.735819 0.000000 -0.000001 -0.000000 
0.389234 78.900635 0.144553 3.103604 -58.266575 6.251956 11.190144 0.276116 -2.448793 8.417021 0.011621 -5.587464 0.000000 0.000000 0.000000 8.439831 0.017449 -5.588567 -21.483272 24.810483 12.200238 -0.116151 25.146472 -3.675492 -0.000000 0.000000 -0.000001 -6.250113 -11.523023 -4.165729 0.000000 0.000000 0.000000 -23.890543 9.502010 -36.578904 0.247211 -42.732334 0.348573 24.987928 -4.799920 16.250159 -0.984039 -7.458099 8.674858 2.521177 20.448125 -1.864327 0.921430 1.706143 2.855438 -0.000001 0.000000 -0.000001 13.342525 -1.008588 10.149959 -0.167027 0.303728 -31.638085 -0.141405 0.303271 -32.788706 0.000001 0.000000 -0.000004 8.486904 -0.324310 -1.447678 0.234525 0.663192 -30.434295 0.447393 0.214385 -44.889479 0.000001 0.000000 0.000000 6.108911 3.157020 -16.743048 0.047353 0.325771 -30.657915 0.414134 0.818569 -42.673140 -0.000000 0.000001 0.000001 -5.633352 7.713216 -14.410118 0.226468 0.278284 -47.120792 0.263753 0.250627 -46.819263 -0.000001 0.000001 -0.000001 -5.532795 10.672749 2.720141 0.000000 0.000000 0.000000 -40.331813 -26.475722 31.254071 31.604423 113.060859 -31.458137 -7.371023 11.217557 -13.032097 0.196115 10.570075 -10.696631 1.209448 -16.935280 3.209922 3.271326 -12.775555 -8.049985 -0.000003 -0.000001 -0.000000 19.442733 11.173837 -13.903709 -0.119176 -0.322236 17.473485 -0.092137 -0.286677 22.694504 0.000000 -0.000000 -0.000001 4.329550 2.442089 -5.373973 0.346100 -0.458872 26.328265 0.464140 0.155557 38.482765 0.000001 -0.000001 -0.000001 -7.000961 -10.690032 5.156135 0.111882 -0.085441 25.593849 0.448158 -0.471310 32.702939 -0.000002 -0.000000 0.000000 -19.431130 -20.232605 5.419755 0.221924 -0.083644 36.282504 0.258417 -0.045669 35.909624 -0.000002 -0.000000 -0.000001 -34.752989 8.773147 27.480957 40.508920 -8.767443 -10.559216 -7.663926 -1.729772 -10.528334 -0.361848 1.237973 0.759812 -0.000000 -0.000003 -0.000000 -30.848078 -7.204686 -29.429977 46.563957 5.303310 -6.146681 -19.158257 0.896779 23.302222 -0.370362 -0.996777 -0.729088 0.000000 0.000001 0.000000 
